<svg class="inline-block" width="2rem" height="2rem" fill="currentColor" xmlns="http://www.w3.org/2000/svg" viewBox="0 0 199.3 202">
    <defs>
        <style>
            .prefix__cls-1 {
                fill: none;
                stroke: currentColor;
                stroke-miterlimit: 10;
                stroke-width: 2px
            }
        </style>
    </defs>
    <g >
        <path class="prefix__cls-1"
            d="M24 1C11.5 1 1 10 1 21.2V201h151V21.1c0-11 10.4-20 23-20H24Zm174 61.3v3.4m.2-16.1-.1 7.8" />
        <path class="prefix__cls-1"
            d="M152 201c.7-61.7-1.4-123 .7-184.7A23.5 23.5 0 0 1 177 1c9.7.6 17.4 6 19.5 14 2.8 10.3 1.4 20 1.6 29.7" />
        <rect class="prefix__cls-1" x="8.2" y="22.1" width="134.5" height="16.7" rx="2.6" ry="2.6" />
        <rect class="prefix__cls-1" x="55.5" y="27.3" width="82.8" height="6.3" rx="1.4" ry="1.4" />
        <circle class="prefix__cls-1" cx="19.9" cy="30.4" r="3.1" />
        <circle class="prefix__cls-1" cx="29.2" cy="30.4" r="3.1" />
        <circle class="prefix__cls-1" cx="38.5" cy="30.4" r="3.1" />
        <path class="prefix__cls-1"
            d="M71.3 47.4c23.6-.3 48-.3 71.4 0m-72.7 7c24.2-.3 48.6-.3 72.7 0m-74.1 7c24.9-.3 49.3-.3 74 0m-75.6 7c25 .3 50.9.3 75.7 0m-77.9 7c25.9.3 52.4.3 77.9 0m-81.3 7c27.2.2 54.4.2 81.3 0m-86.7 7c29.1.2 57.7.2 86.7 0M8.2 98.6h134.5m-134.5 7h134.5m-134.5 7h67.7m-67.7 7.1h68m-68 7c22.6-.2 45.6-.2 68.2 0m-68.2 7c22.6-.2 45.6-.2 68.2 0m-68.2 7c22.6-.2 45.6-.2 68.2 0m-68.2 7c22.6-.3 45.6-.3 68.2 0m-68.2 7c22.6-.3 45.6-.3 68.2 0m-68.2 7c22.6.3 45.6.3 68.2 0m-68.2 7c22.6.3 45.6.3 68 0m-68 7c22.6.3 45.6.3 68 0m-68 7c22.6.3 45.6.3 68 0m-68 7c22.6.2 45.6.2 68 0m5.6-76.9h63.9v77H81.8z" />
        <path class="prefix__cls-1"
            d="m81.8 189.8 5.9-16L97 148l2.2-6 6.2 17 2.8 7.9m-.1.6c5.6-14.5 11.2-29.1 17.2-43.7 2.3 7.5-.4 1.1 0 0 7.2 22.2 13.5 44.5 20.3 66m-46.3-.1c2.5-6.7 6-15 8.8-22.2M8.2 47.4h54.5c.4 0 .7.3.7.7v10c0 18-14.7 32.6-32.7 32.6H8.2V47.3Z" />
    </g>
</svg>