<svg class="inline-block" width="2rem" height="2rem" fill="currentColor"xmlns="http://www.w3.org/2000/svg" viewBox="0 0 183.6 202">
    <defs>
        <style>
            .prefix__cls-1 {
                fill: none;
                stroke: currentColor;
                stroke-linecap: round;
                stroke-linejoin: round;
                stroke-width: 2px
            }
        </style>
    </defs>
    <g id="prefix__Layer_6" data-name="Layer 6">
        <path class="prefix__cls-1"
            d="M120 105.5a7.5 7.5 0 1 0-.1-15 7.5 7.5 0 0 0 0 15Zm5 3.1h-10a10 10 0 0 0-10 10v5h30v-5a10 10 0 0 0-10-10Z" />
        <circle class="prefix__cls-1" cx="119.9" cy="107.1" r="28.2" transform="rotate(-45 120 107.1)" />
        <circle class="prefix__cls-1" cx="34.8" cy="18" r="17" />
        <circle class="prefix__cls-1" cx="172" cy="169.1" r="10.6" />
        <circle class="prefix__cls-1" cx="22.3" cy="179.8" r="21.3" />
        <circle class="prefix__cls-1" cx="172" cy="53.1" r="8.5" />
        <path class="prefix__cls-1"
            d="M62.5 147.4a899.5 899.5 0 0 1 34.6-23.7m-41.4 28.4 3.2-2.2m-21.6 14.8 14.7-10m46.4-77.5 6.5 6M90.5 69.8a89 89 0 0 1 5.4 5.2M47 29.8C60.3 42.5 74.2 54.5 87.6 67m55.9 12.2-6.2 5.8M151 72.3l-4.8 4.4m19.4-18.1L154 69.5m-6.2 73.2-10.5-13.4m16.3 20.8-3-3.7m12.9 16.4-7-9" />
    </g>
</svg>