<svg class="inline-block" width="2rem" height="2rem" fill="currentColor"xmlns="http://www.w3.org/2000/svg" viewBox="0 0 202 202">
    <defs>
        <style>
            .prefix__cls-2 {
                fill: none;
                stroke: currentColor;
                stroke-miterlimit: 10;
                stroke-width: 2px
            }
        </style>
    </defs>
    <g id="prefix__Layer_6" data-name="Layer 6">
        <circle class="prefix__cls-2" cx="101" cy="101" r="88.8" />
        <path
            d="m101.9 180.9.1 8.9m-40.2-19.2-4.3 7.7m-25.2-36.6-7.7 4.5m-3.5-44.3-8.8.1m19.1-40.2-7.7-4.3m36.6-25.2-4.5-7.7M100 12.3l.1 8.8m44.5 2.6-4.4 7.7m37.2 24.4-7.7 4.5m20.1 39.7-8.9.1m-2.6 44.5-7.7-4.4m-24.4 37.2-4.5-7.7"
            fill="none" stroke="currentColor" stroke-miterlimit="10" />
        <path class="prefix__cls-2" d="M101 1a100 100 0 1 1-66.8 25.6" />
        <path d="m31.6 29-8-3 .1-.3L36 22.1l11.3-5.4-8 9.7-6.4 11h-.2l-1-8.4Z" />
        <path class="prefix__cls-2" d="M50.9 55.8v86.6H164" />
        <path class="prefix__cls-2" d="m50.9 130.8 31.4-33.9 23.4 20.9L145.4 78" />
    </g>
</svg>