<svg class="inline-block" width="2rem" height="2rem" fill="currentColor" xmlns="http://www.w3.org/2000/svg" viewBox="0 0 265.4 202">
    <defs>
        <style>
            .prefix__cls-1 {
                fill: none;
                stroke: currentColor;
                stroke-miterlimit: 10;
                stroke-width: 2px
            }
        </style>
    </defs>
    <g>
        <path class="prefix__cls-1"
            d="M264.4 193c-58.9 27.8-117.7-27.9-176.6 0v-69.6c58.9-27.9 117.7 27.8 176.6 0V193Z" />
        <path class="prefix__cls-1"
            d="M227 194a217 217 0 0 1-49.3-7.9c-17.1-4-34.8-8.2-52.6-8.2a95.1 95.1 0 0 0-30.3 4.7v-54.7a79.7 79.7 0 0 1 30.3-5.6 217 217 0 0 1 49.4 7.9c17 4 34.7 8.2 52.6 8.2 10.8 0 20.8-1.5 30.2-4.7v54.7a79.7 79.7 0 0 1-30.2 5.6Z" />
        <circle class="prefix__cls-1" cx="177.8" cy="158.2" r="11" />
        <path class="prefix__cls-1"
            d="M122.8 155.5H136m96.9 4.4h-13.2m-42.1-81.2C118.7 106.5 59.9 50.8 1 78.7V9c58.9-27.8 117.7 28 176.6 0v69.6Z" />
        <path class="prefix__cls-1"
            d="M140.3 79.7a217 217 0 0 1-49.4-7.9c-17-4-34.8-8.2-52.6-8.2A95.1 95.1 0 0 0 8 68.3V13.5A79.7 79.7 0 0 1 38.3 8a217 217 0 0 1 49.4 8c17 4 34.8 8.2 52.6 8.2 10.8 0 20.8-1.5 30.3-4.7v54.7a79.7 79.7 0 0 1-30.3 5.6Z" />
        <circle class="prefix__cls-1" cx="91.1" cy="43.8" r="11" />
        <path class="prefix__cls-1"
            d="M36 41.2h13.2m96.9 4.4h-13.2M83.5 151.4c-24.5-10.2-41-28.6-41-49.5 0-4 .7-7.9 1.8-11.6" />
        <path d="m43.3 93.8-8.4.9v-.3l9.2-8.7 7.6-10L49 88l-.8 12.6-.2.2-4.7-7Z" />
        <path class="prefix__cls-1" d="M180.6 55.9c20.3 10.6 33.4 27.3 33.4 46 0 2.5-.2 5-.7 7.4" />
        <path d="m214 105.7 8.2-1.7v.3l-8.3 9.5-6.6 10.7 1.5-12.5-.4-12.6.2-.2 5.4 6.5Z" />
    </g>
</svg>